<?xml version="1.0" standalone="no"?>
<!DOCTYPE svg PUBLIC "-//W3C//DTD SVG 20010904//EN"
 "http://www.w3.org/TR/2001/REC-SVG-20010904/DTD/svg10.dtd">
<svg version="1.0" xmlns="http://www.w3.org/2000/svg"
 width="1000.000000pt" height="1000.000000pt" viewBox="0 0 1000.000000 1000.000000"
 preserveAspectRatio="xMidYMid meet">
<metadata>
Created by potrace 1.11, written by Peter Selinger 2001-2013
</metadata>
<g transform="translate(0.000000,1000.000000) scale(0.100000,-0.100000)"
fill="#000000" stroke="none">
<path d="M4564 8348 c-2 -4 7 -5 21 -2 14 2 25 0 25 -6 0 -5 -3 -9 -7 -9 -5 1
-38 1 -75 0 -63 -1 -66 -2 -60 -23 5 -19 4 -20 -10 -7 -9 7 -13 18 -10 23 3 5
0 6 -7 2 -9 -6 -9 -11 0 -22 9 -11 6 -14 -17 -15 -16 -1 -35 -1 -41 0 -7 1
-13 -3 -13 -9 0 -6 4 -9 9 -5 5 3 13 1 16 -5 4 -6 3 -10 -2 -9 -4 1 -25 1 -45
0 -27 -1 -38 -6 -38 -16 0 -8 -3 -14 -7 -14 -27 4 -42 -2 -37 -16 5 -11 -3
-17 -25 -21 -17 -4 -31 -13 -31 -21 0 -8 -8 -13 -17 -11 -12 2 -19 -5 -21 -20
-2 -15 -9 -22 -20 -20 -9 2 -16 -2 -15 -9 1 -6 -5 -14 -13 -17 -12 -5 -15 -2
-10 11 6 17 5 17 -8 0 -8 -10 -18 -18 -23 -19 -4 0 -7 -4 -5 -9 1 -5 -5 -9
-13 -9 -9 0 -20 -11 -25 -25 -6 -17 -14 -23 -25 -19 -9 4 -15 3 -14 -2 4 -22
-2 -33 -16 -28 -11 4 -13 2 -9 -9 3 -8 0 -18 -5 -22 -6 -3 -8 -12 -5 -18 5 -8
3 -8 -7 1 -18 16 -30 15 -23 -2 3 -8 0 -23 -6 -33 -10 -16 -11 -16 -6 0 3 9 1
17 -4 17 -10 0 -12 -5 -13 -37 -1 -10 -12 -24 -24 -31 -13 -7 -21 -17 -18 -22
4 -6 -1 -10 -9 -10 -9 0 -16 -9 -16 -20 0 -12 -7 -20 -17 -21 -15 0 -15 -2 2
-9 17 -7 17 -9 3 -9 -12 -1 -18 -9 -18 -26 0 -14 -3 -24 -7 -24 -24 4 -33 -4
-33 -26 0 -15 -6 -25 -14 -25 -10 0 -16 -13 -18 -37 -2 -30 -7 -37 -20 -35
-14 2 -18 -4 -18 -33 0 -24 -4 -35 -15 -35 -11 0 -15 -13 -16 -52 0 -29 -3
-47 -6 -40 -8 19 -19 14 -20 -10 -4 -96 -6 -105 -23 -101 -14 4 -16 -3 -15
-42 0 -26 -3 -49 -8 -52 -5 -3 -5 -8 0 -12 5 -3 6 -17 2 -31 l-7 -25 -1 24
c-1 31 -12 21 -15 -14 -2 -17 1 -25 9 -22 6 3 12 -1 12 -8 0 -8 -5 -13 -11
-12 -17 3 -17 -243 0 -270 11 -17 11 -21 1 -17 -8 3 -13 -3 -13 -16 0 -22 11
-27 20 -7 3 6 5 -2 4 -18 -1 -17 0 -35 3 -40 3 -6 5 -22 4 -37 0 -16 3 -28 8
-28 4 0 5 -6 1 -12 -6 -10 -4 -10 8 0 10 8 19 9 22 3 4 -5 2 -12 -3 -16 -6 -3
-7 -15 -2 -28 5 -12 7 -30 5 -40 -1 -9 2 -15 7 -11 5 3 7 9 4 14 -3 5 -1 12 5
15 6 4 10 3 9 -2 -5 -31 3 -63 16 -63 8 0 15 -9 15 -20 0 -14 5 -18 18 -13 15
5 15 4 -1 -9 -10 -7 -18 -18 -17 -23 5 -22 -1 -35 -15 -35 -8 0 -15 -5 -15
-11 0 -6 7 -8 18 -4 12 4 14 3 6 -5 -6 -6 -20 -13 -30 -15 -11 -2 -21 -4 -24
-4 -3 -1 2 -6 10 -11 13 -8 12 -10 -2 -10 -10 0 -18 -6 -18 -12 0 -10 -3 -10
-9 0 -6 10 -10 7 -15 -12 -4 -18 -11 -24 -19 -19 -8 4 -7 1 2 -10 12 -15 11
-17 -3 -17 -9 0 -16 -7 -16 -15 0 -9 -9 -15 -21 -15 -15 0 -19 -5 -15 -15 3
-9 -1 -18 -9 -21 -8 -3 -17 -14 -20 -25 -4 -11 -11 -17 -16 -13 -5 3 -6 10 -3
16 4 7 2 8 -4 4 -7 -4 -12 -18 -12 -32 0 -15 -6 -24 -15 -24 -13 0 -20 -19
-16 -44 1 -5 -5 -3 -14 4 -9 7 -15 9 -14 4 5 -27 -3 -54 -16 -54 -8 0 -19 -9
-25 -20 -6 -11 -15 -18 -21 -15 -5 4 -9 -6 -9 -20 0 -17 -5 -26 -12 -23 -7 2
-24 -7 -37 -20 -13 -14 -17 -23 -9 -19 8 3 15 -1 15 -9 0 -7 -4 -11 -9 -8 -5
4 -12 -3 -15 -15 -3 -12 -12 -21 -20 -21 -9 0 -13 -6 -10 -15 4 -8 -5 -23 -20
-34 -15 -13 -23 -27 -19 -36 4 -10 -1 -15 -14 -15 -13 0 -20 -7 -20 -20 0 -14
-7 -20 -21 -20 -18 0 -20 -2 -9 -16 11 -13 10 -16 -8 -21 -13 -3 -22 -15 -24
-32 -2 -14 -8 -25 -15 -24 -6 1 -14 -15 -18 -36 -5 -31 -10 -38 -24 -34 -15 4
-18 -1 -16 -21 2 -14 -2 -29 -7 -33 -7 -3 -8 -1 -4 5 4 7 2 12 -3 12 -10 0
-15 -20 -12 -47 1 -7 -7 -13 -19 -13 -11 0 -20 -5 -20 -12 0 -6 -7 -19 -15
-28 -8 -9 -16 -35 -18 -57 -1 -24 -7 -40 -14 -40 -7 0 -13 4 -13 9 0 4 5 8 11
8 5 0 7 5 4 10 -11 18 -21 11 -23 -17 -1 -16 -8 -33 -15 -38 -16 -14 -41 -59
-28 -50 6 3 11 -1 11 -9 0 -9 -5 -15 -12 -13 -7 1 -13 -2 -13 -8 -6 -41 -18
-63 -33 -58 -12 5 -14 2 -9 -11 5 -13 1 -19 -15 -24 -21 -5 -21 -6 -2 -13 16
-7 17 -8 2 -8 -12 -1 -18 -9 -18 -26 0 -16 -4 -23 -14 -19 -7 3 -16 -2 -20
-11 -4 -11 -2 -14 7 -9 8 5 7 2 -2 -9 -7 -9 -10 -17 -5 -17 5 0 0 -7 -10 -15
-11 -8 -20 -23 -21 -34 0 -10 -9 -26 -19 -36 -14 -14 -15 -20 -4 -26 10 -7 10
-9 1 -9 -7 0 -12 -6 -10 -12 1 -7 -5 -13 -13 -13 -19 0 -30 -24 -23 -53 4 -17
2 -21 -11 -16 -13 5 -16 -1 -16 -34 0 -35 -3 -40 -20 -37 -14 3 -20 -2 -20
-15 0 -10 -6 -21 -12 -23 -10 -4 -10 -6 0 -6 17 -1 15 -21 -3 -21 -11 0 -15
-11 -15 -41 0 -24 -4 -38 -10 -34 -5 3 -10 -2 -11 -12 0 -16 -1 -16 -9 2 -8
18 -9 18 -9 -5 -1 -15 -7 -32 -13 -38 -14 -14 -14 -16 -16 -76 -2 -29 -5 -37
-17 -32 -9 3 -15 0 -15 -9 0 -8 6 -15 13 -15 9 0 9 -2 0 -8 -6 -4 -13 -21 -15
-37 -2 -18 -9 -30 -18 -30 -10 0 -16 -11 -17 -30 -1 -16 -3 -47 -4 -68 -1 -23
-5 -33 -10 -25 -4 6 -5 17 -2 23 4 5 2 7 -2 2 -10 -9 -13 -28 -15 -125 -2 -40
-6 -74 -9 -77 -4 -2 -6 9 -5 24 1 16 -3 35 -8 42 -8 11 -9 10 -4 -3 3 -11 0
-18 -7 -18 -8 0 -7 -4 3 -10 10 -7 11 -12 4 -18 -7 -4 -10 -84 -11 -229 0
-213 2 -227 27 -225 3 0 7 -8 7 -19 1 -10 -3 -19 -8 -19 -6 0 -8 4 -4 9 3 5 1
12 -4 15 -20 13 -20 -13 -1 -27 17 -12 21 -27 23 -73 1 -43 6 -58 15 -56 8 1
11 -2 7 -8 -3 -6 -11 -8 -16 -5 -15 10 -10 -2 7 -20 10 -9 18 -36 19 -63 3
-61 3 -62 16 -62 8 0 8 5 -1 15 -8 9 -9 15 -2 15 17 0 24 -18 27 -64 3 -60 4
-63 15 -46 7 11 10 3 11 -30 1 -25 1 -49 0 -53 -1 -5 3 -6 9 -2 6 3 8 11 5 16
-4 5 -2 9 3 9 5 0 10 -11 11 -25 1 -14 3 -34 4 -45 1 -12 9 -20 19 -20 17 0
21 -10 20 -55 -1 -17 0 -17 4 -2 6 19 26 24 23 4 -5 -40 1 -55 22 -50 14 4 20
1 19 -8 -4 -26 0 -40 9 -34 5 3 12 1 16 -5 3 -5 0 -10 -7 -10 -10 0 -10 -2 1
-9 7 -5 11 -14 7 -20 -4 -6 4 -13 19 -17 14 -3 25 -13 25 -21 0 -8 4 -11 10
-8 9 6 14 -8 11 -27 0 -5 8 -8 19 -8 14 0 20 -6 18 -17 -2 -12 4 -19 20 -21
12 -2 20 -8 16 -13 -3 -6 3 -13 15 -16 12 -3 21 -13 21 -25 0 -10 5 -16 10
-13 14 9 50 -4 50 -17 0 -6 -7 -5 -17 3 -16 13 -17 12 -4 -4 8 -10 20 -16 27
-13 8 3 19 -4 25 -15 6 -12 17 -18 25 -15 9 3 14 -1 14 -13 0 -13 10 -21 34
-25 19 -4 37 -13 40 -22 3 -8 10 -13 15 -10 5 3 11 -1 14 -8 3 -8 1 -17 -6
-20 -11 -4 28 -10 60 -9 7 0 11 -4 10 -10 -1 -7 8 -13 21 -15 12 -2 20 -7 17
-12 -3 -5 0 -12 6 -16 7 -4 9 -3 5 4 -3 6 -2 13 4 17 5 3 10 -1 10 -9 0 -9 6
-16 14 -16 20 0 31 -19 18 -32 -6 -6 -8 -17 -5 -24 3 -8 -1 -14 -11 -14 -9 0
-16 -5 -16 -11 0 -6 7 -9 15 -6 8 4 17 1 21 -5 4 -7 3 -8 -4 -4 -7 4 -12 3
-12 -1 0 -5 -17 -10 -37 -11 -21 -2 -40 -8 -44 -13 -3 -6 -42 -12 -86 -13 -44
-2 -85 -6 -91 -10 -7 -4 -12 -2 -12 4 0 6 -5 8 -11 4 -8 -4 -7 -9 2 -15 7 -4
16 -6 19 -4 4 2 7 -2 7 -10 0 -10 -5 -11 -19 -4 -13 7 -18 6 -18 -2 0 -7 -3
-9 -7 -6 -3 4 -12 2 -20 -4 -10 -9 -13 -8 -13 0 0 7 -4 10 -10 6 -5 -3 -7 -12
-4 -19 3 -8 -2 -13 -13 -13 -49 0 -59 -3 -43 -13 13 -8 12 -10 -5 -11 -11 -1
-27 -2 -37 -1 -11 1 -15 -5 -14 -22 2 -19 -1 -22 -17 -18 -13 3 -18 1 -13 -6
3 -6 -3 -16 -14 -22 -13 -7 -19 -18 -16 -26 3 -9 -1 -14 -14 -14 -10 0 -22 -9
-25 -20 -4 -11 -11 -18 -16 -15 -5 4 -9 0 -9 -8 0 -8 -9 -17 -20 -20 -15 -4
-20 -14 -20 -36 0 -21 -5 -31 -15 -31 -10 0 -15 -10 -15 -34 0 -35 -13 -55
-24 -37 -4 5 0 11 6 14 7 2 9 8 5 13 -12 13 -27 -16 -27 -53 0 -19 -7 -36 -17
-43 -15 -10 -15 -11 -1 -6 17 5 19 -17 3 -31 -4 -4 -5 -2 0 6 5 9 4 12 -3 7
-7 -4 -12 -34 -12 -72 0 -47 -3 -63 -12 -58 -6 4 -8 3 -4 -4 3 -6 2 -13 -2
-16 -12 -7 -9 -56 4 -64 6 -4 11 -29 11 -57 1 -113 7 -184 14 -179 5 2 5 12 2
22 -3 9 -3 14 2 10 8 -8 14 -41 17 -91 1 -23 3 -26 10 -13 13 23 28 10 28 -24
0 -22 4 -28 15 -24 10 4 15 0 15 -14 0 -11 8 -22 20 -25 12 -3 20 -14 21 -29
0 -12 3 -17 6 -10 8 20 22 14 16 -8 -4 -16 0 -20 21 -20 14 0 25 -3 24 -7 -2
-5 7 -18 20 -30 12 -13 22 -18 22 -10 0 8 3 7 9 -3 6 -8 7 -18 5 -22 -3 -4 0
-8 6 -8 6 0 8 -5 4 -12 -4 -7 -3 -8 4 -4 6 4 9 13 5 21 -3 8 -1 15 5 15 10 0
13 -39 15 -222 1 -71 6 -118 12 -118 6 0 6 -3 0 -8 -14 -9 -13 -55 0 -64 6 -5
6 -8 -1 -8 -7 0 -11 -23 -11 -57 0 -139 -4 -194 -12 -188 -13 7 -24 -31 -25
-83 -1 -27 -7 -47 -16 -52 -10 -6 -15 -24 -15 -59 0 -37 -3 -50 -12 -47 -7 3
-15 1 -18 -5 -4 -5 -3 -9 2 -8 4 1 15 1 23 0 11 -1 9 -5 -6 -14 -15 -9 -21
-21 -20 -44 1 -19 -5 -35 -12 -38 -8 -3 -10 0 -6 6 4 7 1 10 -7 7 -9 -3 -14
-19 -14 -40 0 -25 -3 -34 -12 -31 -8 3 -13 -3 -13 -16 0 -12 -6 -21 -12 -21
-9 0 -8 -4 2 -10 23 -15 4387 -13 4396 2 4 6 3 8 -3 5 -6 -4 -13 0 -17 8 -3 8
0 17 6 21 7 4 8 3 4 -4 -4 -7 -3 -12 2 -12 5 0 9 21 9 48 2 102 2 188 1 217
-1 17 2 40 6 53 5 15 3 22 -6 22 -10 0 -9 3 2 10 8 5 20 10 25 10 6 0 3 -5 -5
-10 -13 -8 -12 -10 3 -10 16 0 22 -26 20 -87 -1 -7 4 -10 9 -7 5 3 7 13 4 21
-3 8 -2 12 2 9 5 -3 9 -20 10 -38 3 -59 9 -73 26 -70 11 2 16 -5 16 -24 0 -21
4 -25 18 -20 14 5 14 4 -2 -9 -15 -12 -16 -15 -5 -15 15 0 17 -5 21 -50 1 -11
8 -20 15 -20 7 0 13 -7 13 -15 0 -8 9 -15 20 -15 11 0 20 -7 20 -15 0 -13 47
-15 364 -15 200 0 371 3 380 6 20 8 21 24 1 24 -8 0 -14 3 -14 8 4 25 -3 62
-12 62 -5 0 -7 -6 -3 -13 5 -8 2 -8 -9 2 -9 7 -17 22 -17 31 0 28 -11 51 -21
44 -5 -3 -9 1 -9 10 0 8 -5 16 -12 18 -10 4 -17 23 -20 56 -2 14 -14 16 -22 3
-4 -5 -1 -12 4 -14 6 -3 5 -4 -2 -3 -7 1 -13 20 -14 42 -3 55 -2 54 -19 54 -8
0 -14 3 -14 8 5 31 -3 52 -20 52 -10 0 -19 6 -18 12 1 37 -4 58 -13 53 -10 -6
-12 5 -13 53 0 13 -6 22 -15 22 -12 0 -12 3 -2 15 7 9 10 18 6 22 -3 3 -6 1
-6 -5 0 -7 -4 -12 -8 -12 -5 0 -8 10 -7 22 2 26 -15 59 -27 52 -4 -3 -8 1 -9
8 -4 73 -6 88 -14 95 -4 4 -5 -1 -1 -12 5 -13 4 -17 -3 -10 -5 6 -11 30 -12
55 -2 27 -10 51 -21 60 -12 11 -18 32 -19 74 -2 32 -8 64 -15 71 -8 7 -14 47
-16 104 -2 50 -6 91 -10 91 -11 0 -18 -16 -11 -24 10 -10 13 -37 3 -31 -5 3
-10 0 -12 -6 -2 -6 -4 12 -4 40 -1 47 4 56 29 52 4 0 7 4 7 9 0 6 -7 10 -16 8
-10 -2 -18 3 -20 10 -1 7 0 8 2 3 7 -12 60 15 68 35 3 8 11 12 17 9 6 -4 13 3
16 15 3 13 11 19 19 16 8 -3 14 -1 14 4 0 6 -6 10 -12 11 -7 0 1 7 17 14 22
10 30 20 31 42 2 39 5 42 14 13 8 -24 8 -24 10 -2 1 12 3 27 4 33 0 7 8 15 16
18 8 3 16 19 17 35 1 16 8 34 14 40 9 8 10 8 5 -2 -4 -6 -2 -12 3 -12 10 0 13
16 14 78 1 12 7 22 14 22 15 0 14 -5 16 85 1 39 5 75 10 82 4 6 1 14 -5 16
-10 4 -10 6 0 6 8 1 10 6 6 13 -12 20 -12 72 0 81 8 6 7 10 -1 14 -7 2 -13 12
-13 20 0 12 3 13 13 4 10 -8 14 -7 14 4 0 7 -5 13 -11 12 -11 -2 -13 7 -15 71
-1 23 -6 32 -18 33 -15 0 -15 2 2 9 18 8 18 9 2 9 -13 1 -18 8 -17 24 4 40 0
58 -10 52 -6 -4 -7 -11 -4 -17 4 -7 2 -8 -5 -4 -6 4 -9 11 -6 16 3 5 -3 18
-15 30 -24 24 -26 31 -5 24 11 -5 13 -2 9 10 -3 9 -10 13 -15 10 -8 -5 -13 9
-10 29 0 4 -6 7 -15 7 -8 0 -12 5 -9 10 4 6 12 7 18 3 7 -4 6 0 -2 10 -15 19
-26 23 -15 5 4 -7 3 -8 -4 -4 -7 4 -12 15 -12 25 0 12 -7 18 -17 17 -10 0 -18
6 -18 14 -1 8 -6 14 -13 13 -7 -2 -12 8 -12 21 0 19 -4 23 -20 19 -15 -4 -20
0 -20 16 0 13 -5 19 -14 15 -10 -4 -16 2 -18 18 -2 15 -9 22 -20 20 -11 -2
-18 3 -18 13 0 8 -7 15 -15 15 -8 0 -15 9 -15 20 0 13 -7 20 -20 20 -11 0 -28
9 -37 19 -9 11 -22 17 -29 14 -8 -3 -14 1 -14 9 0 8 -6 15 -12 16 -42 3 -78
22 -43 22 31 0 10 10 -31 16 -21 2 -42 10 -46 17 -3 7 -24 14 -45 15 -21 2
-45 10 -53 19 -14 15 -13 16 2 4 12 -9 18 -9 24 0 4 8 3 9 -4 5 -7 -4 -12 -3
-12 2 0 5 -26 9 -57 9 -34 0 -59 5 -61 12 -2 6 -11 11 -20 11 -15 0 -15 -2 -2
-10 12 -8 12 -10 1 -10 -8 0 -20 8 -28 18 -14 16 -14 16 -9 0 3 -12 0 -18 -10
-18 -8 0 -13 4 -9 9 3 5 0 13 -6 17 -8 4 -9 3 -5 -5 4 -6 0 -14 -9 -17 -19 -8
-20 -6 -29 24 -6 16 -3 22 8 22 9 0 18 11 22 24 4 17 11 22 25 19 14 -4 18 -1
14 10 -4 8 1 17 9 20 9 4 16 13 16 22 0 8 9 15 20 15 12 0 20 7 20 18 0 9 5
24 11 32 9 13 10 12 5 -3 -3 -11 -2 -16 4 -12 6 3 10 19 10 36 0 22 5 29 20
29 13 0 20 7 20 20 0 12 5 17 13 14 8 -3 14 2 14 10 0 8 -7 12 -16 9 -12 -3
-12 -2 2 7 9 6 17 18 17 25 0 8 7 15 15 15 11 0 15 11 15 35 0 29 4 35 18 33
14 -2 18 7 23 47 3 28 7 44 7 38 4 -28 17 -10 19 25 2 47 7 69 17 79 4 4 6 3
4 -2 -2 -6 1 -10 7 -10 5 0 10 25 11 55 0 37 4 54 12 53 7 -2 12 0 13 5 0 4 2
38 4 76 2 42 8 72 16 77 18 11 20 589 2 589 -6 0 -14 4 -17 9 -3 5 0 8 7 7 6
0 12 4 12 9 0 6 -2 9 -5 8 -8 -2 -11 29 -13 124 -2 64 -5 83 -17 85 -11 3 -15
18 -15 63 0 49 -3 60 -16 59 -17 -1 -18 4 -22 88 -1 31 -7 48 -14 48 -12 0
-18 34 -14 69 2 8 -2 10 -11 5 -9 -5 -8 -2 2 11 14 17 13 18 -7 13 -22 -6 -23
-3 -23 42 0 33 -5 50 -15 54 -9 3 -15 18 -15 36 0 18 -6 33 -15 36 -10 4 -15
20 -15 46 0 29 -3 37 -12 32 -8 -5 -7 0 2 11 14 16 13 17 -8 11 -20 -7 -22 -4
-22 28 0 26 -4 36 -15 36 -9 0 -15 6 -14 13 5 37 -2 57 -20 57 -13 0 -18 7
-18 26 0 15 -6 30 -12 34 -12 7 -19 28 -20 62 -1 10 -4 17 -8 17 -24 -4 -33 4
-33 30 0 16 -6 31 -15 35 -8 3 -15 9 -14 13 4 24 -3 43 -15 43 -10 0 -14 10
-13 32 1 20 -3 33 -13 35 -12 4 -12 3 -1 -5 10 -7 10 -11 1 -17 -16 -10 -22
-1 -24 35 0 20 -5 29 -13 25 -8 -3 -13 5 -14 20 -1 14 -3 30 -4 35 -1 6 -3 13
-4 18 -1 4 -5 0 -11 -8 -6 -9 -5 -17 3 -22 8 -5 7 -8 -4 -8 -11 0 -16 9 -16
27 0 14 -8 32 -17 38 -9 7 -16 24 -16 39 0 14 -5 25 -12 23 -6 -1 -14 7 -17
19 -4 13 -13 20 -23 18 -17 -2 -23 16 -19 53 1 6 -4 15 -10 19 -7 4 -9 3 -5
-4 3 -6 2 -14 -4 -17 -6 -4 -10 -3 -9 2 3 19 -2 43 -8 42 -18 -3 -36 2 -30 7
10 10 -13 45 -24 39 -5 -4 -9 -3 -8 2 6 32 -3 63 -17 63 -11 0 -14 5 -10 16 5
13 1 15 -20 11 -21 -4 -25 -1 -21 14 4 13 0 19 -12 19 -9 0 -18 9 -19 20 -4
43 -6 49 -13 44 -5 -2 -6 -12 -3 -22 5 -15 4 -15 -9 1 -9 11 -14 28 -12 39 3
14 0 18 -10 14 -13 -5 -20 5 -16 27 0 4 -8 7 -19 7 -13 0 -20 7 -20 20 0 11
-6 20 -14 20 -7 0 -16 9 -19 21 -3 12 -10 18 -16 14 -6 -3 -11 1 -11 9 0 14
-12 20 -32 17 -7 -1 -13 32 -9 53 1 5 -6 3 -15 -5 -12 -9 -15 -10 -10 -1 5 8
-2 16 -19 22 -18 7 -25 15 -21 25 4 10 -1 15 -15 15 -11 0 -17 5 -14 10 4 6
11 7 17 4 7 -4 8 -2 4 5 -4 6 -12 9 -17 6 -8 -6 -13 8 -10 27 0 4 -6 5 -14 2
-8 -4 -15 -2 -15 4 0 6 -10 8 -22 4 -15 -3 -19 -2 -14 7 11 17 -21 61 -44 61
-11 0 -20 5 -20 10 0 6 3 9 8 8 4 -2 8 2 9 7 1 6 -9 9 -22 7 -20 -3 -25 1 -25
18 0 17 -4 20 -20 15 -16 -5 -20 -2 -20 14 0 12 -7 21 -15 21 -13 0 -19 12
-16 32 0 4 -6 5 -14 2 -9 -4 -15 0 -15 10 0 9 -8 16 -20 16 -18 0 -25 10 -21
33 0 4 -10 7 -24 7 -19 0 -23 4 -18 18 5 14 3 14 -11 -3 -15 -17 -17 -17 -12
-2 4 12 0 17 -14 17 -14 0 -20 7 -20 21 0 11 -4 18 -9 14 -6 -3 -15 4 -21 15
-7 13 -21 20 -40 20 -18 0 -29 5 -28 12 2 7 -7 14 -19 16 -16 2 -23 10 -23 25
0 18 -2 19 -10 7 -6 -10 -10 -11 -10 -2 0 6 -7 12 -16 12 -8 0 -12 5 -9 10 6
10 -3 13 -37 13 -11 0 -18 8 -19 21 0 21 -1 21 -9 1 -8 -19 -9 -19 -9 3 -1 13
-7 22 -13 21 -7 -1 -22 -1 -33 0 -17 1 -18 3 -5 11 12 8 10 10 -10 11 -14 1
-30 2 -37 2 -7 0 -15 7 -18 16 -4 13 -16 17 -49 16 -33 -1 -43 2 -39 12 6 16
19 17 26 3 3 -6 4 -5 3 2 -2 7 -11 12 -20 12 -9 -1 -16 2 -16 7 0 5 -5 9 -11
9 -5 0 -7 -6 -3 -12 4 -7 3 -9 -1 -5 -16 14 -13 35 4 40 12 3 17 13 15 35 -1
19 4 33 13 36 9 4 12 1 7 -7 -5 -8 -4 -9 4 -2 6 6 12 36 14 67 2 45 5 54 16
46 7 -6 12 -7 11 -2 -1 5 -1 44 0 88 1 63 4 76 14 68 10 -8 13 -6 13 7 0 11
-6 17 -13 14 -9 -4 -11 0 -7 11 3 9 9 14 13 12 4 -3 7 4 7 14 0 12 -4 16 -11
10 -7 -6 -11 -2 -11 9 0 10 5 17 11 15 7 -3 10 33 11 105 0 69 -4 109 -10 108
-11 -2 -13 9 -17 121 -3 65 -5 71 -17 55 -13 -17 -14 -17 -12 2 1 11 2 37 1
59 -1 32 -3 36 -15 27 -10 -8 -16 -9 -21 -1 -3 5 0 10 7 10 11 0 11 2 0 9 -8
4 -13 14 -12 22 5 30 0 38 -17 32 -16 -6 -17 -5 -3 12 12 15 12 17 1 10 -11
-6 -13 -2 -9 19 5 23 2 26 -21 26 -20 0 -23 2 -11 10 11 7 11 10 2 10 -7 0
-10 5 -7 10 3 6 -2 10 -12 10 -15 0 -16 2 -3 10 9 6 10 10 3 10 -6 0 -15 10
-18 21 -6 17 -9 19 -16 8 -6 -10 -9 -11 -10 -1 -1 6 -3 17 -4 22 -1 6 -3 14
-4 20 0 5 -8 7 -16 4 -9 -4 -15 0 -15 10 0 9 -7 16 -15 16 -8 0 -15 5 -15 10
0 7 -6 7 -20 0 -11 -6 -20 -7 -20 -2 0 6 10 12 22 15 29 8 20 16 -20 19 -20 1
-31 7 -28 14 3 7 -11 14 -35 18 -22 4 -37 11 -34 16 6 9 -11 13 -57 13 -10 0
-16 3 -13 6 12 20 -18 30 -99 33 -59 2 -90 7 -93 15 -5 14 -141 14 -149 1z
m106 -2 c0 -3 -4 -8 -10 -11 -5 -3 -10 -1 -10 4 0 6 5 11 10 11 6 0 10 -2 10
-4z m716 -770 c-1 -19 -3 -32 -6 -29 -8 7 -8 63 0 63 4 0 6 -15 6 -34z m-2
-106 c-6 -6 -10 -3 -10 10 0 13 4 16 10 10 7 -7 7 -13 0 -20z m471 -859 c3 -5
2 -12 -3 -15 -5 -3 -9 1 -9 9 0 17 3 19 12 6z m-2119 -118 c-1 -7 -8 -19 -16
-26 -12 -10 -12 -9 -2 4 8 10 8 19 1 26 -6 6 -5 10 5 10 7 0 13 -6 12 -14z
m-96 -127 c0 -11 -19 -15 -25 -6 -3 5 1 10 9 10 9 0 16 -2 16 -4z m885 -54
c-3 -3 -11 0 -18 7 -9 10 -8 11 6 5 10 -3 15 -9 12 -12z m-542 -467 c-3 -9 -8
-14 -10 -11 -3 3 -2 9 2 15 9 16 15 13 8 -4z m1587 -199 c0 -3 -4 -8 -10 -11
-5 -3 -10 -1 -10 4 0 6 5 11 10 11 6 0 10 -2 10 -4z m35 -55 c3 -5 2 -12 -3
-15 -5 -3 -9 1 -9 9 0 17 3 19 12 6z m-2638 -116 c0 -8 -4 -15 -9 -15 -10 0
-11 14 -1 23 9 10 10 9 10 -8z m294 -122 c13 -16 12 -17 -3 -4 -10 7 -18 15
-18 17 0 8 8 3 21 -13z m2169 -167 c0 -3 -4 -8 -10 -11 -5 -3 -10 -1 -10 4 0
6 5 11 10 11 6 0 10 -2 10 -4z m-2103 -111 c0 -8 -4 -12 -9 -9 -5 3 -6 10 -3
15 9 13 12 11 12 -6z m220 -160 c0 -8 -4 -12 -9 -9 -5 3 -6 10 -3 15 9 13 12
11 12 -6z m668 5 c3 -6 -1 -7 -9 -4 -18 7 -21 14 -7 14 6 0 13 -4 16 -10z
m-510 -40 c3 -5 1 -10 -4 -10 -6 0 -11 5 -11 10 0 6 2 10 4 10 3 0 8 -4 11
-10z m36 -7 c13 -16 12 -17 -3 -4 -17 13 -22 21 -14 21 2 0 10 -8 17 -17z
m-1241 -295 c0 -18 -2 -20 -9 -8 -6 8 -7 18 -5 22 9 14 14 9 14 -14z m2206
-390 c5 4 5 3 1 -2 -12 -15 -34 -15 -34 0 0 9 4 11 12 4 7 -5 16 -6 21 -2z
m-386 -62 c0 -2 -8 -10 -17 -17 -16 -13 -17 -12 -4 4 13 16 21 21 21 13z m26
-22 c1 -9 0 -13 -4 -10 -3 4 -7 14 -8 22 -1 9 0 13 4 10 3 -4 7 -14 8 -22z
m635 -57 c-10 -9 -11 -8 -5 6 3 10 9 15 12 12 3 -3 0 -11 -7 -18z m-571 -821
c0 -3 -4 -8 -10 -11 -5 -3 -10 -1 -10 4 0 6 5 11 10 11 6 0 10 -2 10 -4z m235
-5 c3 -5 2 -12 -3 -15 -5 -3 -9 1 -9 9 0 17 3 19 12 6z m-1981 -307 c3 -8 2
-12 -4 -9 -6 3 -10 10 -10 16 0 14 7 11 14 -7z m4236 -234 c0 -5 -7 -10 -16
-10 -8 0 -12 5 -9 10 3 6 10 10 16 10 5 0 9 -4 9 -10z m-3473 -305 c0 -8 -4
-12 -9 -9 -5 3 -6 10 -3 15 9 13 12 11 12 -6z m2919 -20 c-1 -8 -5 -17 -8 -21
-5 -4 -4 16 1 34 3 9 9 -1 7 -13z m-321 -114 c-9 -8 -36 -10 -30 -2 2 4 11 8
20 8 8 0 13 -3 10 -6z m-374 -58 c13 -16 12 -17 -3 -4 -10 7 -18 15 -18 17 0
8 8 3 21 -13z m-46 -11 c-3 -3 -11 0 -18 7 -9 10 -8 11 6 5 10 -3 15 -9 12
-12z m-2995 -86 c0 -2 -7 -9 -15 -16 -13 -11 -14 -10 -9 4 5 14 24 23 24 12z
m-143 -391 c-4 -34 -14 -41 -11 -8 2 33 2 33 9 33 3 0 4 -11 2 -25z m5088
-744 c3 -5 2 -12 -3 -15 -5 -3 -9 1 -9 9 0 17 3 19 12 6z m-4785 -511 c0 -5
-4 -10 -10 -10 -5 0 -10 5 -10 10 0 6 5 10 10 10 6 0 10 -4 10 -10z m4227 -47
c-3 -3 -11 -2 -17 2 -9 6 -9 10 1 16 14 8 27 -7 16 -18z m-4267 -83 c0 -5 -2
-10 -4 -10 -3 0 -8 5 -11 10 -3 6 -1 10 4 10 6 0 11 -4 11 -10z m4380 -95 c0
-2 -6 -5 -13 -8 -8 -3 -14 1 -14 8 0 7 6 11 14 8 7 -3 13 -6 13 -8z m-120 -75
c0 -5 -2 -10 -4 -10 -3 0 -8 5 -11 10 -3 6 -1 10 4 10 6 0 11 -4 11 -10z m900
0 c0 -5 -4 -10 -10 -10 -5 0 -10 5 -10 10 0 6 5 10 10 10 6 0 10 -4 10 -10z
m-900 -41 c0 -5 -4 -9 -8 -9 -5 0 -9 7 -9 15 0 8 4 12 9 9 4 -3 8 -9 8 -15z
m178 -24 c-3 -3 -9 2 -12 12 -6 14 -5 15 5 6 7 -7 10 -15 7 -18z"/>
<path d="M4720 8352 c0 -4 16 -7 35 -8 19 0 33 1 30 4 -8 8 -65 12 -65 4z"/>
<path d="M3610 7360 c0 -5 5 -10 11 -10 5 0 7 5 4 10 -3 6 -8 10 -11 10 -2 0
-4 -4 -4 -10z"/>
<path d="M6220 6285 c-7 -9 -8 -15 -2 -15 5 0 12 7 16 15 3 8 4 15 2 15 -2 0
-9 -7 -16 -15z"/>
<path d="M3376 6118 c3 -5 10 -6 15 -3 13 9 11 12 -6 12 -8 0 -12 -4 -9 -9z"/>
<path d="M3205 5890 c4 -6 11 -8 16 -5 14 9 11 15 -7 15 -8 0 -12 -5 -9 -10z"/>
<path d="M2810 5250 c-9 -6 -10 -10 -3 -10 6 0 15 5 18 10 8 12 4 12 -15 0z"/>
<path d="M7021 5154 c0 -11 3 -14 6 -6 3 7 2 16 -1 19 -3 4 -6 -2 -5 -13z"/>
<path d="M7125 4920 c-3 -5 -1 -10 4 -10 6 0 11 5 11 10 0 6 -2 10 -4 10 -3 0
-8 -4 -11 -10z"/>
<path d="M7255 4520 c3 -5 11 -10 16 -10 6 0 7 5 4 10 -3 6 -11 10 -16 10 -6
0 -7 -4 -4 -10z"/>
<path d="M2415 4410 c3 -5 8 -10 11 -10 2 0 4 5 4 10 0 6 -5 10 -11 10 -5 0
-7 -4 -4 -10z"/>
<path d="M7321 4194 c0 -11 3 -14 6 -6 3 7 2 16 -1 19 -3 4 -6 -2 -5 -13z"/>
<path d="M2330 3586 c0 -2 7 -7 16 -10 8 -3 12 -2 9 4 -6 10 -25 14 -25 6z"/>
<path d="M7255 2620 c-3 -5 -1 -10 4 -10 6 0 11 5 11 10 0 6 -2 10 -4 10 -3 0
-8 -4 -11 -10z"/>
<path d="M3038 2383 c6 -2 18 -2 25 0 6 3 1 5 -13 5 -14 0 -19 -2 -12 -5z"/>
<path d="M3085 2380 c3 -5 8 -10 11 -10 2 0 4 5 4 10 0 6 -5 10 -11 10 -5 0
-7 -4 -4 -10z"/>
<path d="M7813 1845 c0 -8 5 -15 10 -15 5 0 4 -6 -2 -14 -7 -9 -8 -17 -2 -20
11 -7 9 -25 -3 -45 -6 -10 -5 -12 2 -7 7 4 12 2 12 -3 0 -6 5 -11 11 -11 8 0
8 4 2 13 -5 6 -9 36 -9 65 1 31 -3 52 -10 52 -6 0 -11 -7 -11 -15z"/>
<path d="M7813 1715 c0 -8 4 -12 9 -9 5 3 6 10 3 15 -9 13 -12 11 -12 -6z"/>
<path d="M2449 1638 c-5 -12 -5 -69 1 -73 3 -2 6 14 6 36 0 33 -3 46 -7 37z"/>
<path d="M7587 854 c-8 -8 3 -34 15 -34 6 0 6 6 -1 14 -9 11 -9 15 1 19 7 3 8
6 2 6 -6 1 -13 -2 -17 -5z"/>
<path d="M7666 637 c3 -10 9 -15 12 -12 3 3 0 11 -7 18 -10 9 -11 8 -5 -6z"/>
</g>
</svg>
